<?xml version="1.0" encoding="UTF-8"?>
<svg width="1200pt" height="1200pt" version="1.1" viewBox="0 0 1200 1200" xmlns="http://www.w3.org/2000/svg">
 <path d="m388.78 501.61c-19.219-25.219-38.391-50.391-38.391-86.391v-20.391c-48 56.391-74.391 129.56-74.391 205.18 0 105.61 52.781 206.39 139.22 266.39 6-87.609 16.781-229.22 16.781-230.39 2.3906-39.609-8.3906-85.219-31.219-116.39-3.5625-6-7.1719-12-12-18z" fill="#e53845"/>
 <path d="m428.39 414c2.3906 0 10.781 0 10.781-9.6094v-85.219c-7.2188 3.6094-13.219 8.3906-20.391 13.219v73.219c0 7.1719 7.2188 8.3906 9.6094 8.3906z" fill="#e53845"/>
 <path d="m518.39 414c3.6094 0 9.6094-1.2188 9.6094-9.6094v-120c-7.2188 1.2188-13.219 3.6094-20.391 4.7812v115.22c0 8.3906 8.3906 9.6094 10.781 9.6094z" fill="#e53845"/>
 <path d="m511.22 928.78-21.609-290.39c-3.6094-46.781 9.6094-93.609 34.781-132 4.7812-6 8.3906-12 13.219-19.219 16.781-22.781 33.609-44.391 33.609-72v-181.18c0-3.6094-1.2188-6-2.3906-7.2188-1.2188-1.2188-4.7812-2.3906-7.2188-2.3906-2.3906 0-9.6094 0-9.6094 9.6094v171.61c0 43.219-68.391 43.219-68.391 0v-172.82c0-6-4.7812-10.781-10.781-10.781s-9.6094 4.7812-9.6094 10.781v170.39c0 43.219-68.391 43.219-68.391 0l-0.046875-170.39c0-8.3906-8.3906-9.6094-10.781-9.6094s-6 1.2188-7.2188 2.3906c-2.3906 1.2188-2.3906 3.6094-2.3906 7.2188v181.22c0 27.609 16.781 49.219 33.609 72 4.7812 6 9.6094 12 13.219 19.219 22.781 32.391 36 76.781 36 118.78v14.391s-1.2188 8.3906-18 250.78v1.2188c-1.2188 14.391-2.3906 30-3.6094 46.781 0 9.6094 3.6094 20.391 10.781 27.609 14.391 15.609 40.781 15.609 56.391 0 7.2188-8.3906 10.781-18 10.781-28.781z" fill="#e53845"/>
 <path d="m596.39 414c0 36-19.219 62.391-38.391 86.391-4.7812 6-8.3906 12-13.219 18-22.781 33.609-33.609 75.609-31.219 116.39l20.391 280.78c31.219 6 62.391 8.3906 94.781 4.7812l0.046875-643.13c-10.781-1.2188-21.609-1.2188-32.391-1.2188z" fill="#e53845"/>
 <path d="m722.39 728.39 40.781-25.219c63.609-39.609 70.781-44.391 56.391-142.78-21.609-138-76.781-247.22-166.78-324v699.61c0 10.781 3.6094 20.391 10.781 28.781 14.391 15.609 40.781 15.609 55.219 0 7.2188-7.2188 10.781-18 10.781-28.781l-2.3906-30v-1.2188l-12-165.61c1.2188-4.7812 2.4375-8.3906 7.2188-10.781z" fill="#e53845"/>
 <path d="m753.61 315.61c44.391 67.219 74.391 147.61 88.781 242.39 16.781 109.22 2.3906 122.39-67.219 166.78l-34.781 21.609 10.781 141.61c105.61-57.609 172.82-168 172.82-288s-67.219-229.22-170.39-284.39z" fill="#e53845"/>
 <path d="m600 120c-265.22 0-480 214.78-480 480s214.78 480 480 480 480-214.78 480-480-214.78-480-480-480zm153.61 792 1.2188 22.781c1.2188 18-6 33.609-18 46.781-12 12-27.609 19.219-45.609 19.219-16.781 0-33.609-7.2188-45.609-19.219-9.6094-9.6094-15.609-21.609-16.781-34.781-8.4375 0-19.219 1.2188-28.828 1.2188-21.609 0-43.219-2.3906-64.781-6-1.2188 15.609-6 28.781-16.781 39.609-12 12-27.609 19.219-45.609 19.219-16.781 0-33.609-7.2188-45.609-19.219s-18-28.781-18-45.609c0 0 1.2188-16.781 3.6094-42-98.438-63.609-160.82-175.22-160.82-294 0-91.219 34.781-176.39 98.391-242.39v-124.82c0-9.6094 3.6094-19.219 10.781-25.219 18-15.609 57.609-8.3906 57.609 25.219v69.609c7.2188-3.6094 13.219-7.2188 20.391-10.781v-58.781c0-19.219 15.609-34.781 33.609-34.781 19.219 0 34.781 15.609 34.781 34.781v31.219c7.2188-2.3906 13.219-3.6094 20.391-4.7812v-26.391c0-33.609 39.609-40.781 57.609-25.219 7.2188 6 10.781 15.609 10.781 25.219l0.046876 19.125c10.781 0 21.609 0 32.391 1.2188v-42c0-4.7812 2.3906-8.3906 7.2188-10.781 3.6094-2.3906 9.6094-1.2188 13.219 1.2188 27.609 21.609 52.781 45.609 75.609 72 133.18 52.734 223.18 182.34 223.18 326.34 0 132-75.609 254.39-194.39 312z" fill="#e53845"/>
</svg>
